<svg width="189" height="33" viewBox="0 0 189 33" fill="none" xmlns="http://www.w3.org/2000/svg">
<g clip-path="url(#clip0_9817_7993)">
<path fill-rule="evenodd" clip-rule="evenodd" d="M9.21298 3.77441C4.12479 3.77441 0 7.8992 0 12.9874V20.0122C0 25.1004 4.12479 29.2252 9.21298 29.2252H16.2378C21.326 29.2252 25.4508 25.1004 25.4508 20.0122V12.9874C25.4508 7.8992 21.326 3.77441 16.2378 3.77441H9.21298ZM4.54825 24.5125C2.17899 22.1432 3.84568 16.6352 8.27092 12.2099C12.6962 7.7847 18.2042 6.11801 20.5735 8.48727C22.9427 10.8565 21.276 16.3646 16.8508 20.7898C12.4255 25.215 6.91752 26.8817 4.54825 24.5125Z" fill="white"/>
</g>
<path d="M36.2688 26V7.7795H38.9758V23.293H46.8237V26H36.2688ZM58.6462 12.9854H61.3533V26H58.6332L58.5291 24.1129C58.1473 24.781 57.6311 25.3189 56.9804 25.7267C56.3296 26.1345 55.5618 26.3384 54.6768 26.3384C53.7224 26.3384 52.8244 26.1605 51.9827 25.8048C51.1411 25.4404 50.3993 24.9371 49.7572 24.2951C49.1239 23.653 48.6293 22.9155 48.2736 22.0826C47.9178 21.241 47.74 20.3386 47.74 19.3755C47.74 18.4472 47.9135 17.5752 48.2606 16.7596C48.6076 15.9353 49.0892 15.2152 49.7052 14.5992C50.3212 13.9831 51.0327 13.5016 51.8396 13.1545C52.6552 12.7988 53.5272 12.621 54.4555 12.621C55.4013 12.621 56.2342 12.8379 56.9543 13.2717C57.6832 13.6968 58.2862 14.2434 58.7634 14.9115L58.6462 12.9854ZM54.6117 23.7224C55.3752 23.7224 56.0433 23.5359 56.616 23.1628C57.1886 22.781 57.6311 22.2691 57.9435 21.6271C58.2645 20.985 58.425 20.2736 58.425 19.4927C58.425 18.7031 58.2645 17.9873 57.9435 17.3453C57.6224 16.7032 57.1756 16.1956 56.6029 15.8226C56.039 15.4408 55.3752 15.2499 54.6117 15.2499C53.8569 15.2499 53.1671 15.4408 52.5424 15.8226C51.9177 16.2043 51.4231 16.7162 51.0587 17.3583C50.6943 18.0003 50.5121 18.7118 50.5121 19.4927C50.5121 20.2822 50.6986 20.998 51.0717 21.6401C51.4535 22.2735 51.9524 22.781 52.5684 23.1628C53.1931 23.5359 53.8742 23.7224 54.6117 23.7224ZM70.8196 12.621C72.0864 12.621 73.236 12.929 74.2685 13.545C75.3097 14.161 76.1383 14.9896 76.7543 16.0308C77.3703 17.0633 77.6783 18.2129 77.6783 19.4797C77.6783 20.4254 77.5005 21.3147 77.1447 22.1477C76.789 22.9719 76.2944 23.7007 75.6611 24.3341C75.0364 24.9588 74.3075 25.449 73.4746 25.8048C72.6503 26.1605 71.7653 26.3384 70.8196 26.3384C69.9086 26.3384 69.1104 26.1301 68.4249 25.7137C67.7482 25.2885 67.1929 24.7463 66.759 24.0868V26H64.052V6.47804H66.759V14.8725C67.1929 14.2044 67.7482 13.6621 68.4249 13.2457C69.1104 12.8292 69.9086 12.621 70.8196 12.621ZM70.7936 23.7094C71.5484 23.7094 72.2382 23.5185 72.8629 23.1368C73.4876 22.755 73.9822 22.2431 74.3466 21.6011C74.7197 20.959 74.9062 20.2519 74.9062 19.4797C74.9062 18.6901 74.7197 17.9743 74.3466 17.3322C73.9735 16.6902 73.4746 16.1826 72.8499 15.8095C72.2252 15.4278 71.5398 15.2369 70.7936 15.2369C70.0387 15.2369 69.375 15.4278 68.8023 15.8095C68.2297 16.1913 67.7829 16.7032 67.4618 17.3453C67.1408 17.9873 66.9803 18.6988 66.9803 19.4797C66.9803 20.2605 67.1408 20.972 67.4618 21.6141C67.7829 22.2561 68.2297 22.768 68.8023 23.1498C69.375 23.5229 70.0387 23.7094 70.7936 23.7094ZM85.4875 26.3384C84.2902 26.3384 83.1969 26.0304 82.2078 25.4143C81.2274 24.7983 80.4422 23.9741 79.8522 22.9416C79.2709 21.9004 78.9802 20.7508 78.9802 19.4927C78.9802 18.5383 79.1494 17.6489 79.4878 16.8247C79.8261 15.9917 80.2903 15.2629 80.8803 14.6382C81.479 14.0048 82.1731 13.5103 82.9627 13.1545C83.7522 12.7988 84.5938 12.621 85.4875 12.621C86.6849 12.621 87.7738 12.929 88.7542 13.545C89.7433 14.161 90.5285 14.9896 91.1098 16.0308C91.6998 17.072 91.9948 18.2259 91.9948 19.4927C91.9948 20.4384 91.8256 21.3234 91.4873 22.1477C91.1489 22.9719 90.6804 23.7007 90.0817 24.3341C89.4917 24.9588 88.8019 25.449 88.0124 25.8048C87.2315 26.1605 86.3899 26.3384 85.4875 26.3384ZM85.4875 23.6313C86.2077 23.6313 86.854 23.4405 87.4267 23.0587C87.9993 22.6769 88.4505 22.1737 88.7802 21.549C89.1186 20.9156 89.2878 20.2302 89.2878 19.4927C89.2878 18.7378 89.1143 18.0437 88.7672 17.4103C88.4288 16.777 87.9733 16.2737 87.4007 15.9006C86.828 15.5189 86.1903 15.328 85.4875 15.328C84.776 15.328 84.1297 15.5189 83.5483 15.9006C82.9757 16.2824 82.5202 16.79 82.1818 17.4234C81.8521 18.0567 81.6872 18.7465 81.6872 19.4927C81.6872 20.2649 81.8608 20.9633 82.2078 21.588C82.5549 22.2127 83.0147 22.7116 83.5874 23.0847C84.1687 23.4491 84.8021 23.6313 85.4875 23.6313ZM94.0975 26V12.9854H96.8046V14.3649C97.2557 13.827 97.811 13.4018 98.4704 13.0895C99.1298 12.7771 99.8413 12.621 100.605 12.621C101.091 12.621 101.572 12.686 102.049 12.8162L100.969 15.5492C100.631 15.4191 100.292 15.354 99.9541 15.354C99.3815 15.354 98.8565 15.4972 98.3793 15.7835C97.9021 16.0612 97.5204 16.4386 97.234 16.9158C96.9477 17.393 96.8046 17.9222 96.8046 18.5036V26H94.0975ZM113.069 12.9854H115.776V26H113.056L112.952 24.1129C112.57 24.781 112.054 25.3189 111.403 25.7267C110.752 26.1345 109.984 26.3384 109.099 26.3384C108.145 26.3384 107.247 26.1605 106.405 25.8048C105.564 25.4404 104.822 24.9371 104.18 24.2951C103.546 23.653 103.052 22.9155 102.696 22.0826C102.34 21.241 102.163 20.3386 102.163 19.3755C102.163 18.4472 102.336 17.5752 102.683 16.7596C103.03 15.9353 103.512 15.2152 104.128 14.5992C104.744 13.9831 105.455 13.5016 106.262 13.1545C107.078 12.7988 107.95 12.621 108.878 12.621C109.824 12.621 110.657 12.8379 111.377 13.2717C112.106 13.6968 112.709 14.2434 113.186 14.9115L113.069 12.9854ZM109.034 23.7224C109.798 23.7224 110.466 23.5359 111.039 23.1628C111.611 22.781 112.054 22.2691 112.366 21.6271C112.687 20.985 112.848 20.2736 112.848 19.4927C112.848 18.7031 112.687 17.9873 112.366 17.3453C112.045 16.7032 111.598 16.1956 111.025 15.8226C110.462 15.4408 109.798 15.2499 109.034 15.2499C108.279 15.2499 107.59 15.4408 106.965 15.8226C106.34 16.2043 105.846 16.7162 105.481 17.3583C105.117 18.0003 104.935 18.7118 104.935 19.4927C104.935 20.2822 105.121 20.998 105.494 21.6401C105.876 22.2735 106.375 22.781 106.991 23.1628C107.616 23.5359 108.297 23.7224 109.034 23.7224ZM125.245 15.6924H122.512L122.499 26H119.791L119.804 15.6924H117.735V12.9854H119.804L119.791 8.89876H122.499L122.512 12.9854H125.245V15.6924ZM132.996 26.3384C131.799 26.3384 130.705 26.0304 129.716 25.4143C128.736 24.7983 127.951 23.9741 127.361 22.9416C126.779 21.9004 126.489 20.7508 126.489 19.4927C126.489 18.5383 126.658 17.6489 126.996 16.8247C127.335 15.9917 127.799 15.2629 128.389 14.6382C128.988 14.0048 129.682 13.5103 130.471 13.1545C131.261 12.7988 132.102 12.621 132.996 12.621C134.193 12.621 135.282 12.929 136.263 13.545C137.252 14.161 138.037 14.9896 138.618 16.0308C139.208 17.072 139.503 18.2259 139.503 19.4927C139.503 20.4384 139.334 21.3234 138.996 22.1477C138.657 22.9719 138.189 23.7007 137.59 24.3341C137 24.9588 136.31 25.449 135.521 25.8048C134.74 26.1605 133.898 26.3384 132.996 26.3384ZM132.996 23.6313C133.716 23.6313 134.363 23.4405 134.935 23.0587C135.508 22.6769 135.959 22.1737 136.289 21.549C136.627 20.9156 136.796 20.2302 136.796 19.4927C136.796 18.7378 136.623 18.0437 136.276 17.4103C135.937 16.777 135.482 16.2737 134.909 15.9006C134.337 15.5189 133.699 15.328 132.996 15.328C132.285 15.328 131.638 15.5189 131.057 15.9006C130.484 16.2824 130.029 16.79 129.69 17.4234C129.361 18.0567 129.196 18.7465 129.196 19.4927C129.196 20.2649 129.369 20.9633 129.716 21.588C130.063 22.2127 130.523 22.7116 131.096 23.0847C131.677 23.4491 132.311 23.6313 132.996 23.6313ZM141.606 26V12.9854H144.313V14.3649C144.764 13.827 145.32 13.4018 145.979 13.0895C146.638 12.7771 147.35 12.621 148.113 12.621C148.599 12.621 149.081 12.686 149.558 12.8162L148.478 15.5492C148.139 15.4191 147.801 15.354 147.463 15.354C146.89 15.354 146.365 15.4972 145.888 15.7835C145.411 16.0612 145.029 16.4386 144.743 16.9158C144.456 17.393 144.313 17.9222 144.313 18.5036V26H141.606ZM159.977 12.9854H162.866L155.734 32.5073H152.858L155.214 26L150.541 12.9854H153.496L156.567 22.2908L159.977 12.9854ZM170.947 26L177.623 16.8377L171.025 7.7795H174.37L179.289 14.5471L184.222 7.7795H187.567L180.981 16.8377L187.645 26H184.287L179.289 19.1543L174.318 26H170.947Z" fill="white"/>
<defs>
<clipPath id="clip0_9817_7993">
<rect width="25.4509" height="25.4509" fill="white" transform="translate(0 3.77441)"/>
</clipPath>
</defs>
</svg>
