<svg width="201" height="80" viewBox="0 0 201 80" fill="none" xmlns="http://www.w3.org/2000/svg">
<path d="M0 46.25V0.916687H31.4167V4.95835C30.4844 4.65627 29.276 4.34898 27.7917 4.04169C26.3021 3.7396 24.651 3.45315 22.8333 3.18752C21.026 2.91148 19.1302 2.6771 17.1458 2.47919C15.1719 2.28648 13.2344 2.13544 11.3333 2.02085C9.42708 1.89585 7.64583 1.83335 5.97917 1.83335C5.17187 1.83335 4.56771 2.03648 4.16667 2.43752C3.77604 2.84377 3.58333 3.66148 3.58333 4.89585V19.2292C3.58333 19.8959 3.79167 20.4479 4.20833 20.875C4.63542 21.2917 5.1875 21.5 5.85417 21.5H26.9792V25.3125C25.6458 24.9792 24.0417 24.6563 22.1667 24.3334C20.2917 24.0156 18.3385 23.724 16.3125 23.4584C14.2969 23.1823 12.375 22.9688 10.5417 22.8125C8.70833 22.6615 7.15625 22.5834 5.89583 22.5834C5.22917 22.5834 4.67708 22.7448 4.25 23.0625C3.83333 23.3854 3.625 23.8906 3.625 24.5834L3.58333 42.2709C3.58333 43.4792 3.77604 44.2917 4.16667 44.7084C4.56771 45.125 5.17187 45.3334 5.97917 45.3334C7.64583 45.3334 9.42708 45.2813 11.3333 45.1667C13.2344 45.0417 15.1719 44.8854 17.1458 44.6875C19.1302 44.4948 21.026 44.2656 22.8333 44C24.651 43.724 26.3021 43.4323 27.7917 43.125C29.276 42.8229 30.4844 42.5156 31.4167 42.2084V46.25H0Z" fill="#2D4739"/>
<path d="M34.1333 0.916687H38.1125L55.8 40.625C56.0761 41.2656 56.3625 41.5834 56.6542 41.5834C56.9875 41.5834 57.2636 41.224 57.4875 40.5L68.8625 0.916687H72.8417L56.8 46.25H54.3417L34.1333 0.916687Z" fill="#2D4739"/>
<path d="M76.4686 46.25V0.916687H107.885V4.95835C106.953 4.65627 105.745 4.34898 104.26 4.04169C102.771 3.7396 101.12 3.45315 99.3019 3.18752C97.4946 2.91148 95.5988 2.6771 93.6144 2.47919C91.6404 2.28648 89.7029 2.13544 87.8019 2.02085C85.8956 1.89585 84.1144 1.83335 82.4477 1.83335C81.6404 1.83335 81.0363 2.03648 80.6352 2.43752C80.2446 2.84377 80.0519 3.66148 80.0519 4.89585V19.2292C80.0519 19.8959 80.2602 20.4479 80.6769 20.875C81.104 21.2917 81.6561 21.5 82.3227 21.5H103.448V25.3125C102.114 24.9792 100.51 24.6563 98.6352 24.3334C96.7602 24.0156 94.8071 23.724 92.7811 23.4584C90.7654 23.1823 88.8436 22.9688 87.0102 22.8125C85.1769 22.6615 83.6248 22.5834 82.3644 22.5834C81.6977 22.5834 81.1456 22.7448 80.7186 23.0625C80.3019 23.3854 80.0936 23.8906 80.0936 24.5834L80.0519 42.2709C80.0519 43.4792 80.2446 44.2917 80.6352 44.7084C81.0363 45.125 81.6404 45.3334 82.4477 45.3334C84.1144 45.3334 85.8956 45.2813 87.8019 45.1667C89.7029 45.0417 91.6404 44.8854 93.6144 44.6875C95.5988 44.4948 97.4946 44.2656 99.3019 44C101.12 43.724 102.771 43.4323 104.26 43.125C105.745 42.8229 106.953 42.5156 107.885 42.2084V46.25H76.4686Z" fill="#2D4739"/>
<path d="M145.644 46.25H114.227V0.916687H117.81V42.2709C117.81 43.4792 118.003 44.2917 118.394 44.7084C118.795 45.125 119.399 45.3334 120.206 45.3334C121.873 45.3334 123.654 45.2813 125.56 45.1667C127.461 45.0417 129.399 44.8854 131.373 44.6875C133.357 44.4948 135.253 44.2656 137.06 44C138.878 43.724 140.529 43.4323 142.019 43.125C143.503 42.8229 144.711 42.5156 145.644 42.2084V46.25Z" fill="#2D4739"/>
<path d="M151.26 46.25V0.916687H154.885V46.25H151.26Z" fill="#2D4739"/>
<path d="M161.014 36.6875C161.014 35.4792 161.352 34.5 162.035 33.75C162.712 32.9896 163.493 32.6042 164.368 32.6042C165.061 32.6042 165.706 32.8646 166.305 33.375C165.639 33.5833 165.165 33.9688 164.889 34.5208C164.623 35.0625 164.493 35.6823 164.493 36.375C164.493 37.5833 164.91 38.7813 165.743 39.9583C166.576 41.125 167.701 42.1875 169.118 43.1458C170.535 44.0938 172.16 44.849 173.993 45.4167C175.826 45.974 177.733 46.25 179.722 46.25C181.691 46.25 183.566 46.0104 185.347 45.5208C187.139 45.0365 188.733 44.3229 190.139 43.375C191.54 42.4167 192.639 41.2396 193.43 39.8333C194.233 38.4323 194.639 36.7917 194.639 34.9167C194.639 33.0417 194.269 31.4896 193.535 30.25C192.795 29.0156 191.785 28.0313 190.493 27.2917C189.212 26.5417 187.748 25.9531 186.097 25.5208C184.456 25.0781 182.722 24.7188 180.889 24.4375C179.055 24.1458 177.227 23.849 175.41 23.5417C173.602 23.2396 171.873 22.8438 170.222 22.3542C168.581 21.8698 167.118 21.224 165.826 20.4167C164.545 19.599 163.535 18.5365 162.785 17.2292C162.045 15.9115 161.68 14.25 161.68 12.25C161.68 10.0417 162.206 8.16146 163.264 6.60417C164.331 5.05208 165.743 3.79167 167.493 2.83333C169.243 1.86458 171.18 1.14583 173.305 0.6875C175.441 0.229167 177.566 0 179.68 0C181.498 0 183.373 0.145833 185.305 0.4375C187.233 0.729167 189.045 1.19792 190.743 1.83333C192.436 2.45833 193.805 3.27083 194.847 4.27083C195.889 5.27083 196.41 6.49479 196.41 7.9375C196.41 8.63542 196.269 9.24479 195.993 9.77083C195.727 10.3021 195.264 10.6875 194.597 10.9375C194.18 8.82813 193.201 7.03125 191.66 5.54167C190.118 4.05729 188.233 2.91667 186.014 2.125C183.79 1.32292 181.42 0.916667 178.91 0.916667C174.618 0.916667 171.206 1.86979 168.68 3.77083C166.165 5.67708 164.91 8.42708 164.91 12.0208C164.91 13.5937 165.368 14.849 166.285 15.7917C167.212 16.724 168.462 17.474 170.035 18.0417C171.602 18.599 173.368 19.0573 175.326 19.4167C177.295 19.7813 179.326 20.1354 181.41 20.4792C183.493 20.8281 185.514 21.2813 187.472 21.8333C189.441 22.3906 191.212 23.1458 192.785 24.1042C194.352 25.0625 195.597 26.3073 196.514 27.8333C197.441 29.349 197.91 31.2865 197.91 33.6458C197.91 35.9375 197.394 37.9375 196.368 39.6458C195.337 41.3542 193.956 42.7656 192.222 43.875C190.483 44.974 188.535 45.7917 186.368 46.3333C184.212 46.8854 181.998 47.1667 179.722 47.1667C176.04 47.1667 172.785 46.7292 169.951 45.8542C167.128 44.9688 164.936 43.7292 163.368 42.1458C161.795 40.5625 161.014 38.7448 161.014 36.6875Z" fill="#2D4739"/>
<path d="M4.82712 75.3042C3.74378 74.2521 3.20212 72.9083 3.20212 71.2833C3.20212 69.6479 3.74378 68.299 4.82712 67.2417C5.91045 66.174 7.23337 65.6375 8.80628 65.6375C9.9417 65.6375 10.9521 65.8979 11.8271 66.4083C12.7021 66.9083 13.3688 67.6531 13.8271 68.6375H12.4521C12.1188 67.9865 11.6292 67.4865 10.9938 67.1375C10.3532 66.7938 9.62399 66.6167 8.80628 66.6167C7.51462 66.6167 6.4417 67.0438 5.59795 67.8875C4.76462 68.7365 4.34795 69.8615 4.34795 71.2625C4.34795 72.6688 4.76462 73.799 5.59795 74.6583C6.4417 75.5073 7.51462 75.9292 8.80628 75.9292C9.62399 75.9292 10.3532 75.7521 10.9938 75.3875C11.6292 75.0281 12.1188 74.5229 12.4521 73.8667H13.8271C13.3688 74.8563 12.7021 75.6063 11.8271 76.1167C10.9521 76.6323 9.9417 76.8875 8.80628 76.8875C7.23337 76.8875 5.91045 76.3615 4.82712 75.3042Z" fill="#2D4739"/>
<path d="M37.2739 74.6583C38.1333 73.799 38.5656 72.6688 38.5656 71.2625C38.5656 69.8615 38.1385 68.7365 37.2947 67.8875C36.4458 67.0438 35.3781 66.6167 34.0864 66.6167C32.7947 66.6167 31.7218 67.0438 30.8781 67.8875C30.0291 68.7365 29.6072 69.8615 29.6072 71.2625C29.6072 72.6688 30.0291 73.799 30.8781 74.6583C31.7218 75.5073 32.7843 75.9292 34.0656 75.9292C35.3572 75.9292 36.4249 75.5073 37.2739 74.6583ZM30.1072 75.3042C29.0239 74.2521 28.4822 72.9083 28.4822 71.2833C28.4822 69.6479 29.0239 68.299 30.1072 67.2417C31.1906 66.174 32.5239 65.6375 34.1072 65.6375C35.6906 65.6375 37.0135 66.174 38.0864 67.2417C39.1697 68.299 39.7114 69.6479 39.7114 71.2833C39.7114 72.9083 39.1697 74.2521 38.0864 75.3042C37.0135 76.3615 35.6906 76.8875 34.1072 76.8875C32.5239 76.8875 31.1906 76.3615 30.1072 75.3042Z" fill="#2D4739"/>
<path d="M55.1325 68.6583C55.1325 69.0906 55.2419 69.4448 55.4658 69.7208C55.7002 70.0021 55.9971 70.2104 56.3617 70.3458C56.721 70.4708 57.1169 70.5854 57.5492 70.6792C57.9919 70.7781 58.4294 70.8875 58.8617 71.0125C59.3044 71.1271 59.7054 71.2781 60.07 71.4708C60.4294 71.6531 60.721 71.9396 60.945 72.325C61.1794 72.7 61.2992 73.174 61.2992 73.7417C61.2992 74.5906 60.9867 75.325 60.3617 75.95C59.7367 76.575 58.8721 76.8875 57.7783 76.8875C56.6794 76.8875 55.7888 76.6479 55.1117 76.1583C54.4294 75.674 54.0908 75.0125 54.0908 74.1792H55.2783C55.32 74.6948 55.5335 75.1167 55.9242 75.45C56.3252 75.7833 56.9138 75.95 57.695 75.95C58.4867 75.95 59.1117 75.7521 59.57 75.3458C60.0388 74.9448 60.2783 74.4448 60.2783 73.8458C60.2783 73.2365 60.0596 72.7781 59.6325 72.4708C59.2002 72.1688 58.6794 71.9604 58.07 71.8458C57.471 71.7208 56.8721 71.5854 56.2783 71.4292C55.6794 71.2781 55.1638 70.9813 54.7367 70.5333C54.3044 70.075 54.0908 69.424 54.0908 68.575C54.0908 67.7313 54.4033 67.0281 55.0283 66.4708C55.6638 65.9188 56.5075 65.6375 57.5492 65.6375C58.5908 65.6375 59.4085 65.8823 60.0075 66.3667C60.6013 66.8406 60.9658 67.4708 61.0908 68.2625H59.8408C59.7992 67.8198 59.57 67.4292 59.1533 67.0958C58.7471 66.7625 58.195 66.5958 57.4867 66.5958C56.7888 66.5958 56.221 66.7729 55.7783 67.1167C55.346 67.4656 55.1325 67.9813 55.1325 68.6583Z" fill="#2D4739"/>
<path d="M87.1936 65.7417V76.7834H86.0686V68.2834L82.0686 76.7834H81.4019L77.3811 68.325V76.7834H76.2769V65.7417H77.3186L81.7352 75.1584L86.1519 65.7417H87.1936Z" fill="#2D4739"/>
<path d="M108.009 65.7417V66.6584H103.509V70.7834H107.53V71.6792H103.509V75.8875H108.009V76.7834H102.405V65.7417H108.009Z" fill="#2D4739"/>
<path d="M122.58 66.6584V65.7417H129.476V66.6584H126.58V76.7834H125.476V66.6584H122.58Z" fill="#2D4739"/>
<path d="M144.261 76.7834V65.7417H145.365V76.7834H144.261Z" fill="#2D4739"/>
<path d="M161.644 75.3042C160.56 74.2521 160.019 72.9083 160.019 71.2833C160.019 69.6479 160.56 68.299 161.644 67.2417C162.727 66.174 164.05 65.6375 165.623 65.6375C166.758 65.6375 167.769 65.8979 168.644 66.4083C169.519 66.9083 170.185 67.6531 170.644 68.6375H169.269C168.935 67.9865 168.446 67.4865 167.81 67.1375C167.17 66.7938 166.441 66.6167 165.623 66.6167C164.331 66.6167 163.258 67.0438 162.415 67.8875C161.581 68.7365 161.165 69.8615 161.165 71.2625C161.165 72.6688 161.581 73.799 162.415 74.6583C163.258 75.5073 164.331 75.9292 165.623 75.9292C166.441 75.9292 167.17 75.7521 167.81 75.3875C168.446 75.0281 168.935 74.5229 169.269 73.8667H170.644C170.185 74.8563 169.519 75.6063 168.644 76.1167C167.769 76.6323 166.758 76.8875 165.623 76.8875C164.05 76.8875 162.727 76.3615 161.644 75.3042Z" fill="#2D4739"/>
<path d="M186.653 68.6583C186.653 69.0906 186.762 69.4448 186.986 69.7208C187.221 70.0021 187.518 70.2104 187.882 70.3458C188.242 70.4708 188.637 70.5854 189.07 70.6792C189.512 70.7781 189.95 70.8875 190.382 71.0125C190.825 71.1271 191.226 71.2781 191.591 71.4708C191.95 71.6531 192.242 71.9396 192.466 72.325C192.7 72.7 192.82 73.174 192.82 73.7417C192.82 74.5906 192.507 75.325 191.882 75.95C191.257 76.575 190.393 76.8875 189.299 76.8875C188.2 76.8875 187.309 76.6479 186.632 76.1583C185.95 75.674 185.611 75.0125 185.611 74.1792H186.799C186.841 74.6948 187.054 75.1167 187.445 75.45C187.846 75.7833 188.434 75.95 189.216 75.95C190.007 75.95 190.632 75.7521 191.091 75.3458C191.559 74.9448 191.799 74.4448 191.799 73.8458C191.799 73.2365 191.58 72.7781 191.153 72.4708C190.721 72.1688 190.2 71.9604 189.591 71.8458C188.992 71.7208 188.393 71.5854 187.799 71.4292C187.2 71.2781 186.684 70.9813 186.257 70.5333C185.825 70.075 185.611 69.424 185.611 68.575C185.611 67.7313 185.924 67.0281 186.549 66.4708C187.184 65.9188 188.028 65.6375 189.07 65.6375C190.111 65.6375 190.929 65.8823 191.528 66.3667C192.122 66.8406 192.486 67.4708 192.611 68.2625H191.361C191.32 67.8198 191.091 67.4292 190.674 67.0958C190.268 66.7625 189.716 66.5958 189.007 66.5958C188.309 66.5958 187.742 66.7729 187.299 67.1167C186.867 67.4656 186.653 67.9813 186.653 68.6583Z" fill="#2D4739"/>
</svg>
