<svg width="32" height="32" viewBox="0 0 32 32" fill="none" xmlns="http://www.w3.org/2000/svg">
<path d="M7.5586 13.0203V12.7079C7.5586 9.60694 7.37204 6.15051 9.53778 3.93122C10.7729 2.66561 12.7714 1.59961 16 1.59961C19.2286 1.59961 21.2271 2.66561 22.4621 3.93122C24.6279 6.15051 24.4414 9.60694 24.4414 12.7079V13.0203M3.58594 15.5031C3.58594 14.4061 4.4752 13.5169 5.57214 13.5169H26.4273C27.5243 13.5169 28.4135 14.4061 28.4135 15.5031V26.4272C28.4135 28.6212 26.6351 30.3996 24.4411 30.3996H7.55835C5.36445 30.3996 3.58594 28.6212 3.58594 26.4272V15.5031Z" stroke="#0F1F2E" stroke-width="2" stroke-linecap="round" stroke-linejoin="round"/>
</svg>
