<?xml version="1.0" encoding="utf-8"?>
<!-- Generator: Adobe Illustrator 25.4.1, SVG Export Plug-In . SVG Version: 6.00 Build 0)  -->
<svg version="1.1" id="Шар_1" xmlns="http://www.w3.org/2000/svg" xmlns:xlink="http://www.w3.org/1999/xlink" x="0px" y="0px"
	 viewBox="0 0 595.3 523" style="enable-background:new 0 0 595.3 523;" xml:space="preserve">
<style type="text/css">
	.st0{fill:#BDACA4;}
	.st1{fill:#36325E;}
</style>
<path class="st0" d="M283.4,241.6c1.2,0.5,2.4,0.9,3.6,1.3l1.7,0.6l-1.7,0.6c-1.9,0.7-3.7,1.3-5.1,1.8c-1.7,0.6-3.4,1.2-5.1,1.9l0,0
	c-2.3,1.1-4.5,2.3-6.6,3.8c-2,1.4-3.9,3-5.7,4.8c-1.1,1.2-2.2,2.4-3.2,3.7c-1,1.3-1.9,2.6-2.7,3.9h36.9c0.7,0,1.3,0.3,1.8,0.7
	c0.5,0.5,0.7,1.1,0.7,1.8c0,0.7-0.3,1.3-0.7,1.8l0,0c-0.5,0.5-1.1,0.7-1.8,0.7h-39.6l-0.3,0.7c-1,2.2-1.7,4.5-2.2,6.8
	c-0.5,2.3-0.9,4.7-1,7.2h58.2c0.7,0,1.3,0.3,1.8,0.7l0,0c0.5,0.5,0.7,1.1,0.7,1.8c0,0.7-0.3,1.3-0.7,1.8c-0.5,0.5-1.1,0.7-1.8,0.7
	h-58.1c0.1,2.4,0.5,4.8,1,7.1c0.5,2.3,1.3,4.5,2.2,6.7l0.4,0.9h39.5c0.7,0,1.3,0.3,1.8,0.7c0.5,0.5,0.7,1.1,0.7,1.8
	c0,0.7-0.3,1.3-0.7,1.8c-0.5,0.5-1.1,0.7-1.8,0.7h-36.8c0.8,1.3,1.7,2.6,2.7,3.9c1,1.3,2,2.5,3.1,3.6c1.9,1.9,3.9,3.7,6.1,5.2
	c2.2,1.5,4.6,2.8,7.1,3.9c2.5,1.1,5.1,1.9,7.8,2.5c2.7,0.6,5.5,0.8,8.3,0.8c2.8,0,5.6-0.3,8.3-0.8c2.6-0.5,5.2-1.4,7.8-2.5
	c1-0.4,2-0.9,2.9-1.4c0.9-0.5,1.8-1,2.8-1.6l0.7-0.5l1.6,5.9l-0.4,0.2c-0.8,0.5-1.7,1-2.6,1.5c-0.9,0.5-1.8,0.9-2.7,1.3
	c-2.9,1.3-5.9,2.2-8.9,2.8c-3.1,0.6-6.2,0.9-9.4,0.9c-3.2,0-6.4-0.3-9.6-0.9c-3.1-0.6-6-1.6-8.9-2.8c-2.8-1.2-5.5-2.7-8.1-4.5
	c-2.5-1.7-4.9-3.7-7-5.9c-2.2-2.2-4.1-4.6-5.8-7.2c-1.7-2.6-3.2-5.3-4.4-8.2c-1.2-2.9-2.2-6-2.8-9.1c-0.6-3.2-0.9-6.4-0.9-9.7
	c0-3.2,0.3-6.4,0.9-9.6c0.6-3.1,1.5-6.1,2.8-9.1c1.2-2.9,2.7-5.6,4.4-8.2c1.7-2.5,3.6-4.9,5.8-7.1c2.7-2.8,5.7-5.1,9-7
	c3.2-2,6.6-3.6,10.2-5l0.2-0.1l0.2,0.1C281,240.7,282.2,241.1,283.4,241.6 M284.9,243.5c-0.7-0.2-1.3-0.5-2-0.7
	c-1.1-0.4-2.2-0.8-3.4-1.3c-3.4,1.4-6.7,3-9.8,4.8c-3.1,1.9-6.1,4.1-8.7,6.8c-2.1,2.1-4,4.5-5.6,6.9c-1.7,2.5-3.1,5.2-4.3,8
	c-1.2,2.9-2.1,5.8-2.7,8.8c-0.6,3-0.9,6.2-0.9,9.3c0,3.2,0.3,6.4,0.9,9.4c0.6,3,1.5,5.9,2.7,8.8c1.2,2.8,2.6,5.5,4.3,8
	c1.6,2.5,3.5,4.8,5.6,7c2.1,2.2,4.4,4.1,6.8,5.8c2.5,1.7,5.1,3.2,7.9,4.4c2.8,1.2,5.7,2.1,8.7,2.7c3,0.6,6.2,0.9,9.3,0.9
	c3.1,0,6.2-0.3,9.2-0.9c2.9-0.6,5.8-1.5,8.6-2.7c0.9-0.4,1.8-0.8,2.6-1.2c0.7-0.4,1.4-0.8,2.2-1.2l-0.9-3.3
	c-0.7,0.4-1.4,0.8-2.1,1.2c-1,0.5-2,1-3,1.4c-2.6,1.1-5.3,2-8,2.6c-2.8,0.6-5.7,0.9-8.6,0.9c-2.9,0-5.8-0.3-8.6-0.9
	c-2.7-0.6-5.4-1.4-8-2.6c-2.6-1.1-5-2.5-7.3-4.1c-2.3-1.6-4.4-3.3-6.3-5.3c-1.1-1.2-2.2-2.4-3.2-3.7c-1-1.3-2-2.7-2.8-4.1l-1.1-1.8
	h39.1c0.3,0,0.7-0.1,0.9-0.4c0.2-0.2,0.4-0.6,0.4-0.9c0-0.3-0.1-0.7-0.4-0.9c-0.2-0.2-0.6-0.4-0.9-0.4h-40.3l-0.5-1.2l-0.2-0.5
	c-1-2.3-1.7-4.6-2.3-6.9c-0.6-2.4-0.9-4.9-1-7.4l-0.1-1.3h59.5c0.3,0,0.7-0.1,0.9-0.4c0.2-0.2,0.4-0.6,0.4-0.9
	c0-0.4-0.1-0.7-0.4-0.9c-0.2-0.2-0.6-0.4-0.9-0.4H251l0.1-1.2c0.1-2.5,0.5-5,1-7.5c0.6-2.4,1.3-4.8,2.3-7c0,0,0.6-1.4,0.7-1.5h40.4
	c0.4,0,0.7-0.1,0.9-0.4l0,0c0.2-0.2,0.4-0.5,0.4-0.9c0-0.3-0.1-0.7-0.4-0.9c-0.2-0.2-0.6-0.4-0.9-0.4h-39.2l1.1-1.8
	c0.9-1.5,1.8-2.9,2.9-4.2c1-1.3,2.1-2.6,3.3-3.8c1.8-1.8,3.8-3.5,5.9-5c2.1-1.5,4.4-2.8,6.8-3.9l0.1,0c1.7-0.6,3.4-1.3,5.1-1.9
	C282.8,244.3,283.9,243.9,284.9,243.5z"/>
<path class="st0" d="M271.1,153.9l-1.4-5.2l0.4-0.2c0.9-0.5,1.7-1,2.6-1.4c0.8-0.4,1.7-0.8,2.6-1.2c2.9-1.3,5.9-2.2,8.9-2.8
	c3.1-0.6,6.3-0.9,9.6-0.9c3.2,0,6.3,0.3,9.4,0.9c3,0.6,6,1.6,8.9,2.8c2.8,1.2,5.5,2.7,8.1,4.5c2.5,1.7,4.9,3.7,7,5.9
	c2.2,2.2,4.1,4.6,5.8,7.2c1.7,2.6,3.2,5.3,4.4,8.2c1.2,2.9,2.2,6,2.8,9.1c0.6,3.2,0.9,6.4,0.9,9.7c0,3.2-0.3,6.4-0.9,9.6
	c-0.6,3.1-1.5,6.1-2.8,9.1c-1.2,2.9-2.7,5.6-4.4,8.2c-1.7,2.5-3.6,4.9-5.8,7.1c-2.7,2.8-5.7,5.1-8.9,7c-3.2,2-6.6,3.6-10.1,5
	l-0.2,0.1l-1.2-0.5c-0.7-0.3-1.5-0.6-2.3-0.8c-0.8-0.3-1.6-0.5-2.3-0.8l-2.8-1l1.7-0.6c4.1-1.4,8.1-3.1,11.8-5.1
	c3.7-2,7.2-4.5,10.3-7.5c1.1-1.2,2.2-2.4,3.2-3.7c1-1.2,1.9-2.6,2.7-3.9h-37.2c-0.7,0-1.3-0.3-1.8-0.7l0,0c-0.5-0.5-0.7-1.1-0.7-1.8
	c0-0.7,0.3-1.3,0.7-1.8c0.5-0.5,1.1-0.7,1.8-0.7h39.8l0.3-0.7c0.9-2.2,1.7-4.5,2.2-6.8c0.5-2.3,0.9-4.7,1-7.2h-55.9
	c-0.7,0-1.3-0.3-1.8-0.7c-0.5-0.5-0.7-1.1-0.7-1.8c0-0.7,0.3-1.3,0.7-1.8c0.5-0.5,1.1-0.7,1.8-0.7h55.9c-0.1-2.4-0.5-4.8-1-7.1
	c-0.5-2.3-1.2-4.5-2.2-6.7c-0.1-0.3-0.3-0.6-0.4-0.9h-39.8c-0.7,0-1.3-0.3-1.8-0.7c-0.5-0.5-0.7-1.1-0.7-1.8c0-0.7,0.3-1.3,0.7-1.8
	c0.5-0.5,1.1-0.7,1.8-0.7h37.1c-0.8-1.3-1.7-2.6-2.6-3.8c-1-1.3-2-2.5-3.2-3.7c-1.9-1.9-3.9-3.7-6.1-5.2c-2.2-1.5-4.5-2.8-7-3.9
	c-2.5-1.1-5.1-1.9-7.8-2.5c-2.7-0.6-5.5-0.8-8.3-0.8c-2.8,0-5.6,0.3-8.3,0.8c-2.6,0.5-5.2,1.4-7.8,2.5c-1,0.4-2,0.9-2.9,1.4
	c-0.9,0.5-1.8,1-2.8,1.6l-0.7,0.5L271.1,153.9z M271.2,149.3l0.9,3.4c0.7-0.4,1.4-0.8,2.1-1.2c1-0.5,2-1,3-1.4c2.6-1.1,5.3-2,8-2.6
	c2.8-0.6,5.7-0.9,8.6-0.9c2.9,0,5.8,0.3,8.6,0.9c2.7,0.6,5.4,1.4,8,2.6c2.6,1.1,5,2.5,7.2,4.1c2.3,1.6,4.4,3.3,6.3,5.3
	c1.2,1.2,2.2,2.5,3.3,3.8c1,1.3,2,2.7,2.8,4.1l1.1,1.8h-39.3c-0.3,0-0.7,0.1-0.9,0.4c-0.2,0.2-0.4,0.6-0.4,0.9
	c0,0.3,0.1,0.7,0.4,0.9c0.2,0.2,0.6,0.4,0.9,0.4h40.6l0.3,0.7c0.1,0.3,0.3,0.7,0.4,1c1,2.3,1.7,4.6,2.2,6.9c0.5,2.4,0.9,4.9,1,7.4
	l0.1,1.3h-57.2c-0.4,0-0.7,0.1-0.9,0.4c-0.2,0.2-0.4,0.6-0.4,0.9c0,0.4,0.1,0.7,0.4,0.9c0.2,0.2,0.6,0.4,0.9,0.4h57.2l-0.1,1.2
	c-0.1,2.5-0.5,5-1,7.5c-0.5,2.4-1.3,4.7-2.3,7c-0.2,0.5-0.4,1-0.7,1.5h-40.7c-0.3,0-0.7,0.1-0.9,0.4c-0.2,0.2-0.4,0.6-0.4,0.9
	c0,0.4,0.1,0.7,0.4,0.9l0,0c0.2,0.2,0.5,0.4,0.9,0.4h39.4l-1.1,1.8c-0.9,1.4-1.8,2.8-2.8,4.2c-1,1.3-2.1,2.6-3.3,3.8
	c-3.1,3.2-6.7,5.7-10.6,7.8c-3.3,1.8-6.8,3.2-10.3,4.5c0.6,0.2,1.2,0.4,1.7,0.6c0.8,0.3,1.5,0.6,2.3,0.9l0.8,0.3
	c3.4-1.4,6.7-3,9.7-4.9c3.1-1.9,6-4.1,8.7-6.8c2.1-2.1,4-4.5,5.6-6.9c1.7-2.5,3.1-5.2,4.3-8c1.2-2.9,2.1-5.8,2.7-8.8
	c0.6-3,0.9-6.2,0.9-9.3c0-3.2-0.3-6.4-0.9-9.4c-0.6-3-1.5-5.9-2.7-8.8c-1.2-2.8-2.6-5.5-4.3-8c-1.6-2.5-3.5-4.8-5.6-7
	c-2.1-2.2-4.4-4.1-6.8-5.8c-2.5-1.7-5.1-3.2-7.9-4.4c-2.8-1.2-5.7-2.1-8.6-2.7c-3-0.6-6.1-0.9-9.2-0.9c-3.2,0-6.3,0.3-9.3,0.9
	c-3,0.6-5.9,1.5-8.7,2.7c-0.8,0.4-1.7,0.8-2.5,1.2C272.6,148.5,271.9,148.9,271.2,149.3z"/>
<path class="st1" d="M284.3,143c3.1-0.6,6.2-0.9,9.4-0.9c3.3,0,6.5,0.3,9.6,0.9c3.1,0.6,6.1,1.6,9,2.8c0.9,0.4,1.8,0.8,2.7,1.3
	c0.9,0.5,1.8,0.9,2.6,1.4c0.3,0.2,0.8,0.5,1,0.7c0.3,0.3,0.5,0.6,0.7,1c0.2,0.4,0.2,0.8,0.2,1.2c0,0.8-0.3,1.6-0.9,2.1
	c-0.5,0.5-1.3,0.9-2.1,0.9h-0.1c-0.7,0-0.7,0-1.3-0.4l-0.4-0.3l-0.4-0.2c-0.7-0.4-1.4-0.8-2.1-1.2c-0.7-0.4-1.5-0.7-2.3-1.1
	c-2.5-1.1-5.1-1.9-7.8-2.5c-2.7-0.5-5.5-0.8-8.3-0.8c-2.9,0-5.6,0.3-8.3,0.8c-2.7,0.5-5.3,1.4-7.8,2.5c-2.5,1.1-4.8,2.4-7,3.9
	c-2.2,1.5-4.2,3.2-6.1,5.2c-1.9,1.9-3.6,4-5,6.3c-1.5,2.2-2.7,4.7-3.8,7.2c-1.1,2.6-1.9,5.2-2.4,7.9c-0.5,2.7-0.8,5.6-0.8,8.5
	c0,2.9,0.3,5.8,0.8,8.5c0.5,2.7,1.3,5.4,2.4,7.9c1.1,2.6,2.3,5,3.8,7.2c1.5,2.2,3.2,4.3,5,6.2c8,8.1,19,11.7,30.3,15.4
	c3.6,1.2,7.2,2.3,10.8,3.7c4,1.5,7.9,3.2,11.6,5.3c3.7,2.1,7.1,4.6,10.2,7.8c2.2,2.2,4.1,4.6,5.8,7.1c1.7,2.6,3.2,5.3,4.4,8.2
	c1.2,2.9,2.1,5.9,2.8,9.1c0.6,3.1,0.9,6.3,0.9,9.6c0,3.3-0.3,6.6-0.9,9.7c-0.6,3.1-1.5,6.1-2.8,9c-1.2,2.9-2.7,5.6-4.4,8.2
	c-1.7,2.6-3.6,4.9-5.8,7.2c-2.1,2.2-4.5,4.2-7,5.9c-2.5,1.7-5.2,3.2-8.1,4.5c-2.9,1.3-5.9,2.2-9,2.8c-3.1,0.6-6.3,0.9-9.6,0.9
	c-3.2,0-6.4-0.3-9.4-0.9c-3.1-0.6-6-1.6-8.9-2.8c-1-0.4-2-0.9-2.9-1.4c-1-0.5-1.9-1-2.8-1.5l-0.7-0.5c-0.4-0.3-0.8-0.6-1-1.1
	c-0.2-0.4-0.4-0.9-0.4-1.5c0-0.8,0.3-1.6,0.9-2.1c0.5-0.5,1.3-0.9,2.1-0.9c0.2,0,0.4,0,0.5,0c0.2,0,0.3,0.1,0.5,0.1l0,0
	c0,0,0.1,0,0.2,0.1c0.3,0.2,0.6,0.4,0.9,0.6c0.8,0.5,1.6,1,2.4,1.4c0.8,0.4,1.7,0.9,2.5,1.3c2.5,1.1,5.1,1.9,7.8,2.5
	c2.7,0.5,5.5,0.8,8.3,0.8c2.9,0,5.6-0.3,8.3-0.8c2.7-0.5,5.3-1.4,7.8-2.5c2.5-1.1,4.8-2.4,7-3.9c2.2-1.5,4.2-3.2,6.1-5.2
	c1.9-1.9,3.6-4,5.1-6.3c1.5-2.2,2.8-4.7,3.9-7.2c1.1-2.6,1.9-5.2,2.5-7.9c0.6-2.7,0.8-5.6,0.8-8.5c0-2.9-0.3-5.8-0.8-8.5
	c-0.5-2.7-1.4-5.4-2.5-7.9c-1.1-2.6-2.4-5-3.9-7.2c-1.5-2.2-3.2-4.3-5.1-6.2c-1.8-1.8-3.7-3.4-5.7-4.8c-2-1.4-4.2-2.7-6.5-3.8
	c-3.8-1.4-7.7-2.8-11.7-4.2c-2.4-0.8-4.7-1.7-7.2-2.6l-2.2-0.8c-10.7-3.9-21.2-7.6-29.4-16c-2.2-2.2-4.1-4.6-5.8-7.1
	c-1.7-2.6-3.2-5.3-4.4-8.2c-1.2-2.9-2.1-5.9-2.8-9.1c-0.6-3.1-0.9-6.3-0.9-9.6c0-3.3,0.3-6.6,0.9-9.7c0.6-3.1,1.5-6.1,2.8-9
	c1.2-2.9,2.7-5.6,4.4-8.2c1.7-2.6,3.6-4.9,5.8-7.2c2.1-2.2,4.5-4.2,7-5.9c2.5-1.7,5.2-3.2,8.1-4.5
	C278.3,144.5,281.2,143.6,284.3,143"/>
<path class="st1" d="M73.9,281c0.6,0.6,0.8,1.3,0.6,2c-0.2,0.7-0.6,1.4-1.2,2c-0.6,0.4-1.1,0.6-1.6,0.6c-1.1,0-1.9-0.3-2.3-1.1
	L48.2,256H29.8c-1.9,0-2.9-1-2.9-2.9c0-1.9,1-2.9,2.9-2.9h19.8c3.7,0,7.1-0.7,10.3-2c3.2-1.4,6-3.3,8.4-5.7c2.4-2.4,4.3-5.3,5.7-8.5
	c1.4-3.2,2.1-6.7,2.1-10.3c0-3.7-0.7-7.1-2.1-10.3c-1.4-3.2-3.3-6-5.7-8.4c-2.4-2.4-5.2-4.3-8.4-5.7c-3.2-1.4-6.7-2.1-10.3-2.1H23
	v85.6c0,1.9-1,2.9-2.9,2.9s-2.9-1-2.9-2.9v-88.4c0-1.9,1-2.9,2.9-2.9h29.4c4.4,0,8.6,0.8,12.5,2.5c3.9,1.6,7.4,4,10.3,6.9
	c3,3,5.3,6.4,7,10.3c1.7,3.9,2.5,8.1,2.5,12.5c0,4-0.7,7.8-2,11.4c-1.4,3.6-3.3,6.7-5.7,9.5c-2.4,2.8-5.3,5.2-8.6,7.1
	c-3.3,1.9-6.8,3.1-10.6,3.7L73.9,281z"/>
<path class="st1" d="M150.3,279.8c0.7,0,1.4,0.3,2,0.8c0.6,0.5,0.9,1.2,0.9,2c0,0.8-0.3,1.5-0.9,2c-0.6,0.5-1.3,0.8-2,0.8H98.7
	c-1.9,0-2.9-1-2.9-2.9v-88.4c0-1.9,1-2.9,2.9-2.9h51.6c0.7,0,1.4,0.3,2,0.8c0.6,0.5,0.9,1.2,0.9,2c0,0.8-0.3,1.5-0.9,2
	c-0.6,0.5-1.3,0.8-2,0.8h-48.7v38.6h40c0.8,0,1.5,0.3,2.1,0.8c0.5,0.5,0.8,1.2,0.8,1.9c0,1.9-1,2.9-2.9,2.9h-40v38.6H150.3z"/>
<path class="st1" d="M201.2,191.4c4.4,0,8.6,0.8,12.5,2.5c3.9,1.7,7.4,4,10.3,7c3,3,5.3,6.4,7,10.3c1.7,3.9,2.5,8.1,2.5,12.5v58.9
	c0,1.9-1,2.9-2.9,2.9c-1.9,0-2.9-1-2.9-2.9V256h-46.4c-1.9,0-2.9-1-2.9-2.9c0-1.9,1-2.9,2.9-2.9h46.4v-26.6c0-3.7-0.7-7.1-2.1-10.3
	c-1.4-3.2-3.3-6-5.7-8.4c-2.4-2.4-5.2-4.3-8.4-5.7c-3.2-1.4-6.7-2.1-10.3-2.1c-3.7,0-7.1,0.7-10.3,2.1c-3.2,1.4-6,3.3-8.5,5.7
	c-2.5,2.4-4.4,5.2-5.7,8.4c-1.4,3.2-2,6.7-2,10.4v58.9c0,1.9-1,2.9-2.9,2.9c-1.9,0-2.9-1-2.9-2.9v-58.9c0-4.4,0.8-8.6,2.5-12.5
	c1.6-3.9,4-7.4,7-10.3c3-3,6.4-5.3,10.3-7C192.4,192.2,196.6,191.4,201.2,191.4"/>
<path class="st1" d="M390.9,196.3c-5.7,0-11.1,1.1-16.1,3.3c-5,2.2-9.4,5.2-13.1,9c-3.8,3.8-6.7,8.3-8.8,13.4
	c-2.2,5.1-3.2,10.6-3.2,16.4c0,5.8,1.1,11.3,3.2,16.4c2.1,5.1,5.1,9.6,8.8,13.5c3.7,3.9,8.1,6.9,13.1,9.1c5,2.2,10.4,3.3,16.1,3.3
	c5.7,0,11.1-1.1,16.1-3.3c5-2.2,9.4-5.2,13.1-9.1c3.7-3.9,6.7-8.4,8.9-13.5c2.2-5.1,3.3-10.6,3.3-16.4c0-5.8-1.1-11.3-3.3-16.4
	c-2.2-5.1-5.2-9.6-8.9-13.4c-3.8-3.8-8.1-6.8-13.1-9C402,197.4,396.6,196.3,390.9,196.3 M390.9,286.4c-6.4,0-12.5-1.3-18.2-3.7
	c-5.7-2.5-10.7-6-15-10.3c-4.3-4.4-7.7-9.5-10.1-15.3c-2.4-5.8-3.7-12-3.7-18.6c0-6.5,1.2-12.7,3.7-18.5c2.4-5.8,5.8-10.9,10.1-15.3
	c4.3-4.3,9.3-7.8,15-10.3c5.7-2.5,11.8-3.7,18.2-3.7c6.5,0,12.7,1.3,18.4,3.7c5.7,2.5,10.7,5.9,15,10.3c4.3,4.4,7.7,9.4,10.1,15.3
	c2.4,5.8,3.7,12,3.7,18.5c0,6.7-1.2,12.9-3.7,18.6c-2.4,5.8-5.8,10.9-10.1,15.3c-4.3,4.4-9.3,7.8-15,10.3
	C403.6,285.1,397.5,286.4,390.9,286.4z"/>
<path class="st1" d="M521.4,285.5c-0.8,0-1.6-0.3-2.3-1.1L458,202.9v79.8c0,1.9-1,2.9-2.9,2.9c-1.9,0-2.9-1-2.9-2.9v-88.3
	c0-1.4,0.6-2.3,1.9-2.7c1.2-0.3,2.3-0.1,3.2,0.9l61.1,81.5v-79.8c0-1.9,1-2.9,2.9-2.9s2.9,1,2.9,2.9v88.4c0,1.4-0.6,2.3-1.9,2.7
	C522.2,285.5,521.9,285.5,521.4,285.5"/>
<path class="st1" d="M556.9,285.4c-1.4,0-2.9-0.2-4.5-0.6c-0.7-0.1-1.3-0.5-1.8-1.1c-0.5-0.6-0.6-1.3-0.3-2.1
	c0.2-1.8,1.3-2.6,3.2-2.3c2.5,0.5,5,0.5,7.5-0.1c2.5-0.5,4.8-1.6,6.8-3.1c4.4-3,7.1-7.1,8.1-12.5c0.6-3.6,0.5-6.6-0.2-9.2
	c-0.7-2.6-1.9-4.8-3.6-6.8c-1.7-2-3.7-3.7-6.1-5.4c-2.4-1.6-5-3.2-7.6-4.7c-2.4-1.4-4.8-2.9-7.2-4.5c-2.4-1.5-4.6-3.4-6.4-5.4
	c-1.8-2.1-3.2-4.5-4.1-7.2c-0.9-2.7-1-5.9-0.4-9.6c1.3-7.5,4.8-12.8,10.3-15.9c5-2.9,11.1-3.7,18.2-2.7c0.7,0.2,1.3,0.6,1.8,1.3
	c0.5,0.6,0.6,1.3,0.5,2.1c-0.2,0.7-0.6,1.3-1.3,1.8c-0.6,0.5-1.3,0.6-2.1,0.5c-5.6-1.1-10.3-0.5-14.3,1.8c-4,2.3-6.6,6.2-7.7,12
	c-0.5,2.6-0.4,4.9,0.2,6.8c0.6,1.9,1.6,3.7,2.9,5.3c1.4,1.6,3.1,3.1,5.2,4.6c2.1,1.4,4.5,2.9,7.2,4.5c2.7,1.7,5.5,3.4,8.1,5.1
	c2.7,1.7,5,3.8,7.1,6.1c4.8,5.6,6.4,12.5,5,20.7c-0.6,3.3-1.8,6.4-3.5,9.1c-1.7,2.7-3.9,5.1-6.7,7
	C566.8,283.8,562.1,285.4,556.9,285.4"/>
<path class="st0" d="M406.2,389.7v-8.9l0.4,0.5h-4.8c-1.4,0-2.6,0.3-3.3,1c-0.8,0.7-1.2,1.7-1.2,3c0,1.3,0.4,2.2,1.1,2.9
	c0.7,0.7,1.8,1,3.3,1h4.9L406.2,389.7z M395.7,395.3l3.8-5.4h1.7l-3.7,5.4H395.7z M406.2,395.3v-5.1l0.4,0.4h-5.1
	c-1.2,0-2.3-0.2-3.2-0.6c-0.9-0.4-1.5-1-2-1.8c-0.5-0.8-0.7-1.7-0.7-2.8c0-1.2,0.3-2.2,0.8-3c0.5-0.8,1.2-1.4,2.1-1.9
	c0.9-0.4,2-0.6,3.2-0.6h6v15.5H406.2z M390.1,388.2h-10v-1.4h10V388.2z M380.3,395.3h-1.6v-15.5h1.6V395.3z M390,379.9h1.6v15.5H390
	V379.9z M372,388.2h-10v-1.4h10V388.2z M362.2,395.3h-1.6v-15.5h1.6V395.3z M371.9,379.9h1.6v15.5h-1.6V379.9z M353.7,395.3v-15.5
	h1.6v15.5H353.7z M339.9,389.8l-0.7-0.8h4.8c1.5,0,2.7-0.3,3.5-1c0.8-0.7,1.2-1.6,1.2-2.8c0-1.2-0.4-2.2-1.2-2.9c-0.8-0.7-2-1-3.5-1
	h-4.8l0.7-0.8V389.8z M338.3,395.3v-15.5h5.8c1.3,0,2.4,0.2,3.4,0.6c0.9,0.4,1.7,1,2.2,1.8c0.5,0.8,0.8,1.7,0.8,2.9
	c0,1.1-0.3,2-0.8,2.8c-0.5,0.8-1.2,1.4-2.2,1.8c-0.9,0.4-2.1,0.6-3.4,0.6h-4.9l0.7-0.8v5.7H338.3z M322.3,391.2l0.5-1.3h9l0.5,1.3
	H322.3z M319.6,395.3l7.1-15.5h1.6l7.1,15.5h-1.7l-6.5-14.5h0.7l-6.5,14.5H319.6z M312.7,395.3v-14.5l0.4,0.4h-5.9v-1.4h12.5v1.4
	h-5.9l0.4-0.4v14.5H312.7z M300.8,395.5c-1.2,0-2.2-0.2-3.2-0.6c-1-0.4-1.8-0.9-2.6-1.6c-0.7-0.7-1.3-1.5-1.7-2.5
	c-0.4-1-0.6-2-0.6-3.1c0-1.1,0.2-2.2,0.6-3.1c0.4-1,1-1.8,1.7-2.5c0.7-0.7,1.6-1.3,2.6-1.6s2.1-0.6,3.2-0.6c1.1,0,2.2,0.2,3.2,0.6
	c1,0.4,1.8,0.9,2.5,1.7l-1,1c-0.6-0.6-1.3-1.1-2.1-1.4c-0.8-0.3-1.6-0.4-2.5-0.4c-0.9,0-1.8,0.2-2.6,0.5c-0.8,0.3-1.5,0.8-2.1,1.3
	c-0.6,0.6-1,1.3-1.4,2c-0.3,0.8-0.5,1.6-0.5,2.6c0,0.9,0.2,1.8,0.5,2.6c0.3,0.8,0.8,1.5,1.4,2c0.6,0.6,1.3,1,2.1,1.3
	c0.8,0.3,1.7,0.5,2.6,0.5c0.9,0,1.7-0.1,2.5-0.4c0.8-0.3,1.5-0.8,2.1-1.4l1,1c-0.7,0.8-1.5,1.3-2.5,1.7
	C303,395.3,301.9,395.5,300.8,395.5z M275.8,395.3v-15.5h1.6v12.8l9.9-12.8h1.5v15.5h-1.6v-12.8l-9.9,12.8H275.8z M265.9,395.3
	v-14.5l0.4,0.4h-5.9v-1.4h12.5v1.4h-5.9l0.4-0.4v14.5H265.9z M256.1,388.2h-10v-1.4h10V388.2z M246.3,395.3h-1.6v-15.5h1.6V395.3z
	 M256,379.9h1.6v15.5H256V379.9z M228.7,391.2l0.5-1.3h9l0.5,1.3H228.7z M226,395.3l7.1-15.5h1.6l7.1,15.5H240l-6.5-14.5h0.7
	l-6.5,14.5H226z M206.5,391.2l0.5-1.3h9l0.5,1.3H206.5z M203.7,395.3l7.1-15.5h1.6l7.1,15.5h-1.7l-6.5-14.5h0.7l-6.5,14.5H203.7z
	 M196.9,395.3v-14.5l0.4,0.4h-5.9v-1.4h12.5v1.4H198l0.4-0.4v14.5H196.9z M457.5,364.9v-15.5h1.6v15.5H457.5z M447.6,364.9v-14.5
	l0.4,0.4h-5.9v-1.4h12.5v1.4h-5.9l0.4-0.4v14.5H447.6z M435.6,365c-1.2,0-2.2-0.2-3.2-0.6c-1-0.4-1.8-0.9-2.6-1.6
	c-0.7-0.7-1.3-1.5-1.7-2.5c-0.4-1-0.6-2-0.6-3.1c0-1.1,0.2-2.2,0.6-3.1c0.4-1,1-1.8,1.7-2.5c0.7-0.7,1.6-1.3,2.6-1.6
	c1-0.4,2.1-0.6,3.2-0.6c1.1,0,2.2,0.2,3.2,0.6c1,0.4,1.8,0.9,2.5,1.7l-1,1c-0.6-0.6-1.3-1.1-2.1-1.4c-0.8-0.3-1.6-0.4-2.5-0.4
	c-0.9,0-1.8,0.2-2.6,0.5c-0.8,0.3-1.5,0.8-2.1,1.3c-0.6,0.6-1,1.3-1.4,2c-0.3,0.8-0.5,1.6-0.5,2.6c0,0.9,0.2,1.8,0.5,2.6
	c0.3,0.8,0.8,1.5,1.4,2c0.6,0.6,1.3,1,2.1,1.3c0.8,0.3,1.7,0.5,2.6,0.5c0.9,0,1.7-0.1,2.5-0.4c0.8-0.3,1.5-0.8,2.1-1.4l1,1
	c-0.7,0.8-1.5,1.3-2.5,1.7C437.8,364.8,436.8,365,435.6,365z M416.9,363.5c0.9,0,1.8-0.2,2.6-0.5c0.8-0.3,1.5-0.8,2.1-1.3
	c0.6-0.6,1-1.3,1.4-2c0.3-0.8,0.5-1.6,0.5-2.6c0-0.9-0.2-1.8-0.5-2.6c-0.3-0.8-0.8-1.5-1.4-2c-0.6-0.6-1.3-1-2.1-1.3
	c-0.8-0.3-1.6-0.5-2.6-0.5c-0.9,0-1.8,0.2-2.6,0.5c-0.8,0.3-1.5,0.8-2.1,1.3c-0.6,0.6-1,1.3-1.4,2c-0.3,0.8-0.5,1.6-0.5,2.6
	c0,0.9,0.2,1.8,0.5,2.5c0.3,0.8,0.8,1.5,1.4,2c0.6,0.6,1.3,1,2.1,1.3C415.1,363.4,415.9,363.5,416.9,363.5z M416.9,365
	c-1.2,0-2.2-0.2-3.2-0.6c-1-0.4-1.9-0.9-2.6-1.7c-0.7-0.7-1.3-1.5-1.7-2.5c-0.4-1-0.6-2-0.6-3.1c0-1.1,0.2-2.2,0.6-3.1
	c0.4-1,1-1.8,1.7-2.5c0.7-0.7,1.6-1.3,2.6-1.7c1-0.4,2.1-0.6,3.2-0.6c1.2,0,2.2,0.2,3.2,0.6c1,0.4,1.8,0.9,2.6,1.6
	c0.7,0.7,1.3,1.5,1.7,2.5c0.4,1,0.6,2,0.6,3.1c0,1.1-0.2,2.2-0.6,3.1c-0.4,1-1,1.8-1.7,2.5c-0.7,0.7-1.6,1.3-2.6,1.6
	C419.1,364.8,418,365,416.9,365z M390.2,368.3l0-4.9h16.5v4.9h-1.5v-3.5h-13.5l0,3.5H390.2z M402.8,364.1v-13.3h-7.4l-0.1,3.8
	c0,1.2-0.1,2.3-0.2,3.3c-0.1,1.1-0.2,2-0.4,2.9c-0.2,0.8-0.5,1.5-0.8,2.1c-0.3,0.5-0.8,0.8-1.3,0.9l-1.8-0.3c0.6,0,1.1-0.2,1.5-0.6
	c0.4-0.5,0.7-1.1,0.9-1.9c0.2-0.8,0.4-1.8,0.5-2.9c0.1-1.1,0.2-2.3,0.2-3.6l0.2-5h10.4v14.7H402.8z M381,363.5
	c0.9,0,1.8-0.2,2.6-0.5c0.8-0.3,1.5-0.8,2.1-1.3c0.6-0.6,1-1.3,1.4-2c0.3-0.8,0.5-1.6,0.5-2.6c0-0.9-0.2-1.8-0.5-2.6
	c-0.3-0.8-0.8-1.5-1.4-2c-0.6-0.6-1.3-1-2.1-1.3c-0.8-0.3-1.6-0.5-2.6-0.5c-0.9,0-1.8,0.2-2.6,0.5c-0.8,0.3-1.5,0.8-2.1,1.3
	c-0.6,0.6-1,1.3-1.4,2c-0.3,0.8-0.5,1.6-0.5,2.6c0,0.9,0.2,1.8,0.5,2.5c0.3,0.8,0.8,1.5,1.4,2c0.6,0.6,1.3,1,2.1,1.3
	C379.2,363.4,380,363.5,381,363.5z M381,365c-1.2,0-2.2-0.2-3.2-0.6c-1-0.4-1.9-0.9-2.6-1.7c-0.7-0.7-1.3-1.5-1.7-2.5
	c-0.4-1-0.6-2-0.6-3.1c0-1.1,0.2-2.2,0.6-3.1c0.4-1,1-1.8,1.7-2.5c0.7-0.7,1.6-1.3,2.6-1.7c1-0.4,2.1-0.6,3.2-0.6
	c1.2,0,2.2,0.2,3.2,0.6c1,0.4,1.8,0.9,2.6,1.6c0.7,0.7,1.3,1.5,1.7,2.5c0.4,1,0.6,2,0.6,3.1c0,1.1-0.2,2.2-0.6,3.1
	c-0.4,1-1,1.8-1.7,2.5c-0.7,0.7-1.6,1.3-2.6,1.6C383.2,364.8,382.1,365,381,365z M355.7,365c-0.2,0-0.4,0-0.6,0
	c-0.2,0-0.4-0.1-0.6-0.1l0.1-1.5c0.3,0.1,0.5,0.1,0.7,0.1c0.7,0,1.2-0.3,1.6-0.8c0.4-0.5,0.7-1.3,0.9-2.4c0.2-1.1,0.3-2.5,0.4-4.2
	l0.2-6.6H369v15.5h-1.6v-14.5l0.4,0.4h-8.3l0.4-0.5l-0.2,5.6c-0.1,1.5-0.2,2.9-0.3,4c-0.2,1.1-0.4,2.1-0.7,2.8
	c-0.3,0.7-0.7,1.3-1.2,1.7C357,364.8,356.4,365,355.7,365z M345.3,363.5c0.9,0,1.8-0.2,2.6-0.5c0.8-0.3,1.5-0.8,2.1-1.3
	c0.6-0.6,1-1.3,1.4-2c0.3-0.8,0.5-1.6,0.5-2.6c0-0.9-0.2-1.8-0.5-2.6c-0.3-0.8-0.8-1.5-1.4-2c-0.6-0.6-1.3-1-2.1-1.3
	c-0.8-0.3-1.6-0.5-2.6-0.5c-0.9,0-1.8,0.2-2.6,0.5c-0.8,0.3-1.5,0.8-2.1,1.3c-0.6,0.6-1,1.3-1.4,2c-0.3,0.8-0.5,1.6-0.5,2.6
	c0,0.9,0.2,1.8,0.5,2.5c0.3,0.8,0.8,1.5,1.4,2c0.6,0.6,1.3,1,2.1,1.3C343.5,363.4,344.3,363.5,345.3,363.5z M345.3,365
	c-1.2,0-2.2-0.2-3.2-0.6c-1-0.4-1.9-0.9-2.6-1.7c-0.7-0.7-1.3-1.5-1.7-2.5c-0.4-1-0.6-2-0.6-3.1c0-1.1,0.2-2.2,0.6-3.1
	c0.4-1,1-1.8,1.7-2.5c0.7-0.7,1.6-1.3,2.6-1.7c1-0.4,2.1-0.6,3.2-0.6c1.2,0,2.2,0.2,3.2,0.6c1,0.4,1.8,0.9,2.6,1.6
	c0.7,0.7,1.3,1.5,1.7,2.5c0.4,1,0.6,2,0.6,3.1c0,1.1-0.2,2.2-0.6,3.1c-0.4,1-1,1.8-1.7,2.5c-0.7,0.7-1.6,1.3-2.6,1.6
	C347.5,364.8,346.4,365,345.3,365z M317.2,364.9v-15.5h1.3l7.1,12.1h-0.7l7-12.1h1.3v15.5h-1.6v-13h0.4l-6.5,11h-0.8l-6.5-11h0.4v13
	H317.2z M304.6,359.3v-8.9l0.4,0.5h-4.8c-1.4,0-2.6,0.3-3.3,1c-0.8,0.7-1.2,1.7-1.2,3c0,1.3,0.4,2.2,1.1,2.9c0.7,0.7,1.8,1,3.3,1
	h4.9L304.6,359.3z M294.1,364.9l3.8-5.4h1.7l-3.7,5.4H294.1z M304.6,364.9v-5.1l0.4,0.4H300c-1.2,0-2.3-0.2-3.2-0.6
	c-0.9-0.4-1.5-1-2-1.8c-0.5-0.8-0.7-1.7-0.7-2.8c0-1.2,0.3-2.2,0.8-3c0.5-0.8,1.2-1.4,2.1-1.9c0.9-0.4,2-0.6,3.2-0.6h6v15.5H304.6z
	 M288.4,364.9v-15.5h1.6v15.5H288.4z M274.6,359.3l-0.7-0.8h4.8c1.5,0,2.7-0.3,3.5-1c0.8-0.7,1.2-1.6,1.2-2.8c0-1.2-0.4-2.2-1.2-2.9
	c-0.8-0.7-2-1-3.5-1h-4.8l0.7-0.8V359.3z M273,364.9v-15.5h5.8c1.3,0,2.4,0.2,3.4,0.6c0.9,0.4,1.7,1,2.2,1.8
	c0.5,0.8,0.8,1.7,0.8,2.9c0,1.1-0.3,2-0.8,2.8c-0.5,0.8-1.2,1.4-2.2,1.8c-0.9,0.4-2.1,0.6-3.4,0.6h-4.9l0.7-0.8v5.7H273z M261,363.5
	c0.9,0,1.8-0.2,2.6-0.5c0.8-0.3,1.5-0.8,2.1-1.3c0.6-0.6,1-1.3,1.4-2c0.3-0.8,0.5-1.6,0.5-2.6c0-0.9-0.2-1.8-0.5-2.6
	c-0.3-0.8-0.8-1.5-1.4-2c-0.6-0.6-1.3-1-2.1-1.3c-0.8-0.3-1.6-0.5-2.6-0.5c-0.9,0-1.8,0.2-2.6,0.5c-0.8,0.3-1.5,0.8-2.1,1.3
	c-0.6,0.6-1,1.3-1.4,2c-0.3,0.8-0.5,1.6-0.5,2.6c0,0.9,0.2,1.8,0.5,2.5c0.3,0.8,0.8,1.5,1.4,2c0.6,0.6,1.3,1,2.1,1.3
	C259.2,363.4,260,363.5,261,363.5z M261,365c-1.2,0-2.2-0.2-3.2-0.6c-1-0.4-1.9-0.9-2.6-1.7c-0.7-0.7-1.3-1.5-1.7-2.5
	c-0.4-1-0.6-2-0.6-3.1c0-1.1,0.2-2.2,0.6-3.1c0.4-1,1-1.8,1.7-2.5c0.7-0.7,1.6-1.3,2.6-1.7c1-0.4,2.1-0.6,3.2-0.6
	c1.2,0,2.2,0.2,3.2,0.6c1,0.4,1.8,0.9,2.6,1.6c0.7,0.7,1.3,1.5,1.7,2.5c0.4,1,0.6,2,0.6,3.1c0,1.1-0.2,2.2-0.6,3.1
	c-0.4,1-1,1.8-1.7,2.5c-0.7,0.7-1.6,1.3-2.6,1.6C263.2,364.8,262.1,365,261,365z M244.5,364.9v-14.5l0.4,0.4H239v-1.4h12.5v1.4h-5.9
	l0.4-0.4v14.5H244.5z M226.3,360.7l0.5-1.3h9l0.5,1.3H226.3z M223.5,364.9l7.1-15.5h1.6l7.1,15.5h-1.7l-6.5-14.5h0.7l-6.5,14.5
	H223.5z M212.7,359.3l-0.7-0.8h4.8c1.5,0,2.7-0.3,3.5-1c0.8-0.7,1.2-1.6,1.2-2.8c0-1.2-0.4-2.2-1.2-2.9c-0.8-0.7-2-1-3.5-1H212
	l0.7-0.8V359.3z M211.1,364.9v-15.5h5.8c1.3,0,2.4,0.2,3.4,0.6c0.9,0.4,1.7,1,2.2,1.8c0.5,0.8,0.8,1.7,0.8,2.9c0,1.1-0.3,2-0.8,2.8
	c-0.5,0.8-1.2,1.4-2.2,1.8c-0.9,0.4-2.1,0.6-3.4,0.6H212l0.7-0.8v5.7H211.1z M199.1,363.5c0.9,0,1.8-0.2,2.6-0.5
	c0.8-0.3,1.5-0.8,2.1-1.3c0.6-0.6,1-1.3,1.4-2c0.3-0.8,0.5-1.6,0.5-2.6c0-0.9-0.2-1.8-0.5-2.6c-0.3-0.8-0.8-1.5-1.4-2
	c-0.6-0.6-1.3-1-2.1-1.3c-0.8-0.3-1.6-0.5-2.6-0.5c-0.9,0-1.8,0.2-2.6,0.5c-0.8,0.3-1.5,0.8-2.1,1.3c-0.6,0.6-1,1.3-1.4,2
	c-0.3,0.8-0.5,1.6-0.5,2.6c0,0.9,0.2,1.8,0.5,2.5c0.3,0.8,0.8,1.5,1.4,2c0.6,0.6,1.3,1,2.1,1.3C197.3,363.4,198.1,363.5,199.1,363.5
	z M199.1,365c-1.2,0-2.2-0.2-3.2-0.6c-1-0.4-1.9-0.9-2.6-1.7c-0.7-0.7-1.3-1.5-1.7-2.5c-0.4-1-0.6-2-0.6-3.1c0-1.1,0.2-2.2,0.6-3.1
	c0.4-1,1-1.8,1.7-2.5c0.7-0.7,1.6-1.3,2.6-1.7c1-0.4,2.1-0.6,3.2-0.6c1.2,0,2.2,0.2,3.2,0.6c1,0.4,1.8,0.9,2.6,1.6
	c0.7,0.7,1.3,1.5,1.7,2.5c0.4,1,0.6,2,0.6,3.1c0,1.1-0.2,2.2-0.6,3.1c-0.4,1-1,1.8-1.7,2.5c-0.7,0.7-1.6,1.3-2.6,1.6
	C201.3,364.8,200.2,365,199.1,365z M177.8,363.6h4.7c1.4,0,2.5-0.3,3.2-0.8c0.7-0.6,1.1-1.4,1.1-2.4c0-2.1-1.4-3.2-4.3-3.2h-4.7
	V363.6z M176.2,364.9v-15.5h11.3v1.4h-9.7v5.1h5.1c1.8,0,3.2,0.4,4.2,1.1c1,0.7,1.4,1.8,1.4,3.3c0,1.5-0.5,2.6-1.5,3.4
	c-1,0.8-2.5,1.2-4.4,1.2H176.2z M160.3,360.7l0.5-1.3h9l0.5,1.3H160.3z M157.5,364.9l7.1-15.5h1.6l7.1,15.5h-1.7l-6.5-14.5h0.7
	l-6.5,14.5H157.5z M141.3,365c-0.2,0-0.4,0-0.6,0c-0.2,0-0.4-0.1-0.6-0.1l0.1-1.5c0.3,0.1,0.5,0.1,0.7,0.1c0.7,0,1.2-0.3,1.6-0.8
	c0.4-0.5,0.7-1.3,0.9-2.4c0.2-1.1,0.3-2.5,0.4-4.2l0.2-6.6h10.5v15.5H153v-14.5l0.4,0.4h-8.3l0.4-0.5l-0.2,5.6
	c-0.1,1.5-0.2,2.9-0.3,4c-0.2,1.1-0.4,2.1-0.7,2.8c-0.3,0.7-0.7,1.3-1.2,1.7C142.6,364.8,142,365,141.3,365z"/>
</svg>
